<svg width="230" height="177" viewBox="0 0 230 177" fill="none" xmlns="http://www.w3.org/2000/svg">
<circle cx="115" cy="123" r="54" fill="#EFBA0E"/>
<circle cx="115" cy="123" r="40" fill="#FBDC74"/>
<path d="M113.098 100.854C113.697 99.0115 116.303 99.0115 116.902 100.854L120.837 112.966C121.105 113.79 121.873 114.348 122.739 114.348H135.474C137.412 114.348 138.217 116.827 136.65 117.966L126.347 125.451C125.646 125.96 125.353 126.863 125.621 127.687L129.556 139.798C130.155 141.641 128.046 143.173 126.478 142.034L116.176 134.549C115.475 134.04 114.525 134.04 113.824 134.549L103.522 142.034C101.954 143.173 99.8454 141.641 100.444 139.798L104.379 127.687C104.647 126.863 104.354 125.96 103.653 125.451L93.3502 117.966C91.7828 116.827 92.5883 114.348 94.5258 114.348H107.261C108.127 114.348 108.895 113.79 109.163 112.966L113.098 100.854Z" fill="#EFBA0E"/>
<path fill-rule="evenodd" clip-rule="evenodd" d="M69.2672 61.0837C69.0764 61.8857 67.9888 62.0123 67.619 61.2755L65.9403 57.9271L62.2958 57.0621C61.4938 56.8714 61.3672 55.7838 62.104 55.414L65.4524 53.7352L66.3174 50.0908C66.5081 49.2887 67.5957 49.1622 67.9655 49.899L69.6443 53.2474L73.2887 54.1123C74.0907 54.3031 74.2173 55.3907 73.4805 55.7605L70.1321 57.4392L69.2672 61.0837Z" fill="#FFD54A"/>
<path fill-rule="evenodd" clip-rule="evenodd" d="M29.4674 56.237C29.2766 57.039 28.189 57.1656 27.8192 56.4288L26.1405 53.0804L22.496 52.2154C21.694 52.0247 21.5674 50.9371 22.3042 50.5673L25.6526 48.8885L26.5176 45.2441C26.7083 44.4421 27.7959 44.3155 28.1657 45.0523L29.8445 48.4007L33.4889 49.2657C34.2909 49.4564 34.4175 50.544 33.6807 50.9138L30.3323 52.5925L29.4674 56.237Z" fill="#EFBA0E"/>
<path fill-rule="evenodd" clip-rule="evenodd" d="M17.5426 30.2409C17.3518 31.0429 16.2642 31.1695 15.8944 30.4327L14.2157 27.0843L10.5712 26.2194C9.76917 26.0286 9.6426 24.941 10.3794 24.5712L13.7278 22.8925L14.5928 19.248C14.7835 18.446 15.8711 18.3194 16.2409 19.0562L17.9197 22.4046L21.5641 23.2696C22.3661 23.4603 22.4927 24.5479 21.7559 24.9177L18.4075 26.5965L17.5426 30.2409Z" fill="#EFBA0E"/>
<path fill-rule="evenodd" clip-rule="evenodd" d="M66.8911 35.6819C66.535 37.179 64.5048 37.4153 63.8145 36.0399L60.6809 29.7895L53.8779 28.175C52.3808 27.819 52.1445 25.7888 53.5199 25.0984L59.7703 21.9648L61.3848 15.1619C61.7408 13.6647 63.7711 13.4284 64.4614 14.8038L67.595 21.0542L74.3979 22.6687C75.8951 23.0248 76.1314 25.055 74.756 25.7453L68.5056 28.8789L66.8911 35.6819Z" fill="#EFBA0E"/>
<circle cx="4.55477" cy="4.55477" r="4.55477" transform="matrix(0.993296 -0.115595 -0.115595 -0.993296 38.6343 10.7393)" fill="#FFD54A"/>
<circle cx="4.55477" cy="4.55477" r="4.55477" transform="matrix(0.993296 -0.115595 -0.115595 -0.993296 7.05859 54.1914)" fill="#FFD54A"/>
<circle cx="5.46762" cy="5.46762" r="5.46762" transform="matrix(0.993296 -0.115595 -0.115595 -0.993296 83.3042 27.6904)" fill="#FFD54A"/>
<circle cx="2.48442" cy="2.48442" r="2.48442" transform="matrix(0.993296 -0.115595 -0.115595 -0.993296 73.3711 5.50977)" fill="#FFD54A"/>
<circle cx="3.31256" cy="3.31256" r="3.31256" transform="matrix(0.993296 -0.115595 -0.115595 -0.993296 45.6187 47.7471)" fill="#FFD54A"/>
<circle cx="3.31256" cy="3.31256" r="3.31256" transform="matrix(0.993296 -0.115595 -0.115595 -0.993296 34.8677 35.3477)" fill="#FFD54A"/>
<circle cx="3.31256" cy="3.31256" r="3.31256" transform="matrix(0.993296 -0.115595 -0.115595 -0.993296 0.765625 76.2266)" fill="#EFBA0E"/>
<path fill-rule="evenodd" clip-rule="evenodd" d="M41.1427 88.0052C42.0741 89.2302 44.0263 88.6247 44.101 87.0876L44.4372 80.1038L50.0049 75.8744C51.2299 74.9429 50.6244 72.9908 49.0873 72.9161L42.1035 72.5798L37.8741 67.0122C36.9427 65.7871 34.9905 66.3926 34.9158 67.9297L34.5796 74.9136L29.0119 79.1429C27.7868 80.0744 28.3924 82.0265 29.9295 82.1012L36.9133 82.4375L41.1427 88.0052Z" fill="#FFD54A"/>
<path fill-rule="evenodd" clip-rule="evenodd" d="M159.899 61.0837C160.09 61.8857 161.177 62.0123 161.547 61.2755L163.226 57.9271L166.87 57.0621C167.672 56.8714 167.799 55.7838 167.062 55.414L163.714 53.7352L162.849 50.0908C162.658 49.2887 161.57 49.1622 161.2 49.899L159.522 53.2474L155.877 54.1123C155.075 54.3031 154.949 55.3907 155.686 55.7605L159.034 57.4392L159.899 61.0837Z" fill="#FFD54A"/>
<path fill-rule="evenodd" clip-rule="evenodd" d="M199.699 56.237C199.889 57.039 200.977 57.1656 201.347 56.4288L203.026 53.0804L206.67 52.2154C207.472 52.0247 207.599 50.9371 206.862 50.5673L203.513 48.8885L202.648 45.2441C202.458 44.4421 201.37 44.3155 201 45.0523L199.322 48.4007L195.677 49.2657C194.875 49.4564 194.748 50.544 195.485 50.9138L198.834 52.5925L199.699 56.237Z" fill="#EFBA0E"/>
<path fill-rule="evenodd" clip-rule="evenodd" d="M211.623 30.2409C211.814 31.0429 212.902 31.1695 213.272 30.4327L214.95 27.0843L218.595 26.2194C219.397 26.0286 219.523 24.941 218.787 24.5712L215.438 22.8925L214.573 19.248C214.383 18.446 213.295 18.3194 212.925 19.0562L211.246 22.4046L207.602 23.2696C206.8 23.4603 206.673 24.5479 207.41 24.9177L210.759 26.5965L211.623 30.2409Z" fill="#EFBA0E"/>
<path fill-rule="evenodd" clip-rule="evenodd" d="M162.275 35.6819C162.631 37.179 164.661 37.4153 165.352 36.0399L168.485 29.7895L175.288 28.175C176.785 27.819 177.022 25.7888 175.646 25.0984L169.396 21.9648L167.781 15.1619C167.425 13.6647 165.395 13.4284 164.705 14.8038L161.571 21.0542L154.768 22.6687C153.271 23.0248 153.035 25.055 154.41 25.7453L160.66 28.8789L162.275 35.6819Z" fill="#EFBA0E"/>
<circle cx="186.534" cy="5.68851" r="4.55477" transform="rotate(-173.362 186.534 5.68851)" fill="#FFD54A"/>
<circle cx="218.11" cy="49.1407" r="4.55477" transform="rotate(-173.362 218.11 49.1407)" fill="#FFD54A"/>
<circle cx="141.063" cy="21.6274" r="5.46762" transform="rotate(-173.362 141.063 21.6274)" fill="#FFD54A"/>
<circle cx="153.614" cy="2.75481" r="2.48442" transform="rotate(-173.362 153.614 2.75481)" fill="#FFD54A"/>
<circle cx="180.64" cy="44.0738" r="3.31256" transform="rotate(-173.362 180.64 44.0738)" fill="#FFD54A"/>
<circle cx="191.391" cy="31.6744" r="3.31256" transform="rotate(-173.362 191.391 31.6744)" fill="#FFD54A"/>
<circle cx="225.493" cy="72.5533" r="3.31256" transform="rotate(-173.362 225.493 72.5533)" fill="#EFBA0E"/>
<path fill-rule="evenodd" clip-rule="evenodd" d="M188.023 88.0052C187.092 89.2302 185.14 88.6247 185.065 87.0876L184.729 80.1038L179.161 75.8744C177.936 74.9429 178.542 72.9908 180.079 72.9161L187.063 72.5798L191.292 67.0122C192.223 65.7871 194.176 66.3926 194.25 67.9297L194.586 74.9136L200.154 79.1429C201.379 80.0744 200.774 82.0265 199.237 82.1012L192.253 82.4375L188.023 88.0052Z" fill="#FFD54A"/>
</svg>
