<svg width="12" height="12" viewBox="0 0 12 12" fill="none" xmlns="http://www.w3.org/2000/svg">
<path fill-rule="evenodd" clip-rule="evenodd" d="M1.46293 0.24061C1.30127 0.0844747 1.08476 -0.00192053 0.860018 3.24022e-05C0.635278 0.00198533 0.420296 0.0921301 0.261375 0.251051C0.102453 0.409973 0.0123086 0.624955 0.0103557 0.849695C0.00840274 1.07443 0.0947979 1.29095 0.250933 1.45261L4.78779 5.98947L0.250933 10.5263C0.169068 10.6054 0.103769 10.7 0.0588465 10.8045C0.0139245 10.9091 -0.00972084 11.0216 -0.0107098 11.1354C-0.0116988 11.2492 0.00998837 11.3621 0.0530863 11.4674C0.0961842 11.5728 0.15983 11.6685 0.240309 11.7489C0.320789 11.8294 0.41649 11.8931 0.52183 11.9362C0.62717 11.9793 0.740038 12.001 0.853849 12C0.96766 11.999 1.08013 11.9753 1.18471 11.9304C1.28928 11.8855 1.38386 11.8202 1.46293 11.7383L5.99979 7.20147L10.5366 11.7383C10.6983 11.8945 10.9148 11.9809 11.1396 11.9789C11.3643 11.9769 11.5793 11.8868 11.7382 11.7279C11.8971 11.569 11.9873 11.354 11.9892 11.1292C11.9912 10.9045 11.9048 10.688 11.7486 10.5263L7.21179 5.98947L11.7486 1.45261C11.9048 1.29095 11.9912 1.07443 11.9892 0.849695C11.9873 0.624955 11.8971 0.409973 11.7382 0.251051C11.5793 0.0921301 11.3643 0.00198533 11.1396 3.24022e-05C10.9148 -0.00192053 10.6983 0.0844747 10.5366 0.24061L5.99979 4.77747L1.46293 0.24061Z" fill="black"/>
</svg>
