<svg width="141" height="190" viewBox="0 0 141 190" fill="none" xmlns="http://www.w3.org/2000/svg">
<path d="M0 16C0 10.3995 0 7.59921 1.08993 5.46009C2.04867 3.57847 3.57847 2.04867 5.46009 1.08993C7.59921 0 10.3995 0 16 0H109C120.201 0 125.802 0 130.08 2.17987C133.843 4.09734 136.903 7.15695 138.82 10.9202C141 15.1984 141 20.799 141 32V158C141 169.201 141 174.802 138.82 179.08C136.903 182.843 133.843 185.903 130.08 187.82C125.802 190 120.201 190 109 190H16C10.3995 190 7.59921 190 5.46009 188.91C3.57847 187.951 2.04867 186.422 1.08993 184.54C0 182.401 0 179.601 0 174V16Z" fill="#D0D9EE"/>
<rect x="18" y="24" width="106" height="71" fill="white"/>
</svg>
