<svg width="12" height="7" viewBox="0 0 12 7" fill="none" xmlns="http://www.w3.org/2000/svg">
<path fill-rule="evenodd" clip-rule="evenodd" d="M6.4551 6.45483C6.29044 6.61944 6.06715 6.71191 5.83432 6.71191C5.60149 6.71191 5.3782 6.61944 5.21354 6.45483L0.246418 1.48771C0.0864739 1.32211 -0.00202893 1.10031 -2.80995e-05 0.870089C0.00197273 0.639868 0.094317 0.419642 0.257114 0.256845C0.419911 0.0940475 0.640137 0.00170421 0.870359 -0.000296106C1.10058 -0.00229689 1.32238 0.0862055 1.48798 0.246149L5.83432 4.59249L10.1807 0.24615C10.3463 0.0862063 10.5681 -0.00229607 10.7983 -0.000295238C11.0285 0.00170511 11.2487 0.0940485 11.4115 0.256846C11.5743 0.419643 11.6667 0.639869 11.6687 0.87009C11.6707 1.10031 11.5822 1.32211 11.4222 1.48771L6.4551 6.45483Z" fill="black"/>
</svg>
