<svg width="39" height="39" viewBox="0 0 39 39" fill="none" xmlns="http://www.w3.org/2000/svg">
<path d="M25.5 11.5H25.52M1.5 7.5C1.5 5.9087 2.13214 4.38258 3.25736 3.25736C4.38258 2.13214 5.9087 1.5 7.5 1.5H31.5C33.0913 1.5 34.6174 2.13214 35.7426 3.25736C36.8679 4.38258 37.5 5.9087 37.5 7.5V31.5C37.5 33.0913 36.8679 34.6174 35.7426 35.7426C34.6174 36.8679 33.0913 37.5 31.5 37.5H7.5C5.9087 37.5 4.38258 36.8679 3.25736 35.7426C2.13214 34.6174 1.5 33.0913 1.5 31.5V7.5Z" stroke="#7C7C7C" stroke-width="3" stroke-linecap="round" stroke-linejoin="round"/>
<path d="M1.5 27.4997L11.5 17.4997C13.356 15.7137 15.644 15.7137 17.5 17.4997L27.5 27.4997" stroke="#7C7C7C" stroke-width="3" stroke-linecap="round" stroke-linejoin="round"/>
<path d="M23.5 23.4997L25.5 21.4997C27.356 19.7137 29.644 19.7137 31.5 21.4997L37.5 27.4997" stroke="#7C7C7C" stroke-width="3" stroke-linecap="round" stroke-linejoin="round"/>
</svg>
